# xmcd
#
# Track frame offsets: 
#        150
#        12881
#        30448
#        56196
#        73947
#        94273
#        115404
#        134583
#        162205
#
# Disc length: 2503 seconds
#
# Revision: 6
# Processed by: cddbd v1.5.2PL0 Copyright (c) Steve Scherf et al.
# Submitted via: ExactAudioCopy v0.95b3
#
DISCID=7d09c509
DTITLE=Bulldozer - The Day Of Wrath [SC001]
DYEAR=1985
DGENRE=Thrash/Speed/Death Metal
TTITLE0=The Exorcism
TTITLE1=Cut-Throat
TTITLE2=Insurrection Of The Living Damned
TTITLE3=Fallen Angel
TTITLE4=The Great Deceiver
TTITLE5=Mad Man
TTITLE6=Whisky Time
TTITLE7=Welcome Death
TTITLE8=Endless Funeral
EXTD=
EXTT0=
EXTT1=
EXTT2=
EXTT3=
EXTT4=
EXTT5=
EXTT6=
EXTT7=
EXTT8=
PLAYORDER=
